<svg xmlns="http://www.w3.org/2000/svg" xmlns:xlink="http://www.w3.org/1999/xlink" width="220" height="175.66" viewBox="0 0 220 175.66">
  <defs>
    <linearGradient id="linear-gradient" x1="0.112" y1="0.157" x2="0.888" y2="0.843" gradientUnits="objectBoundingBox">
      <stop offset="0" stop-color="#cedf75"/>
      <stop offset="0.164" stop-color="#cdde6e"/>
      <stop offset="0.391" stop-color="#cadd5c"/>
      <stop offset="0.656" stop-color="#c5db3f"/>
      <stop offset="0.947" stop-color="#bfd916"/>
      <stop offset="1" stop-color="#bed90e"/>
    </linearGradient>
    <linearGradient id="linear-gradient-2" x1="0.5" y1="1" x2="0.5" gradientUnits="objectBoundingBox">
      <stop offset="0" stop-color="#fff"/>
      <stop offset="0.006" stop-color="#fff" stop-opacity="0.984"/>
      <stop offset="0.105" stop-color="#fff" stop-opacity="0.757"/>
      <stop offset="0.207" stop-color="#fff" stop-opacity="0.557"/>
      <stop offset="0.309" stop-color="#fff" stop-opacity="0.384"/>
      <stop offset="0.411" stop-color="#fff" stop-opacity="0.247"/>
      <stop offset="0.513" stop-color="#fff" stop-opacity="0.137"/>
      <stop offset="0.617" stop-color="#fff" stop-opacity="0.063"/>
      <stop offset="0.721" stop-color="#fff" stop-opacity="0.016"/>
      <stop offset="0.829" stop-color="#fff" stop-opacity="0"/>
    </linearGradient>
    <linearGradient id="linear-gradient-3" x1="0.5" y1="1" x2="0.5" gradientUnits="objectBoundingBox">
      <stop offset="0" stop-color="#fff"/>
      <stop offset="0.345" stop-color="#fff" stop-opacity="0.576"/>
      <stop offset="0.829" stop-color="#fff" stop-opacity="0"/>
    </linearGradient>
  </defs>
  <g id="Grupo_114" data-name="Grupo 114" transform="translate(-658.339 -238.75)">
    <g id="Grupo_20" data-name="Grupo 20" transform="translate(691.813 239)">
      <path id="Trazado_20" data-name="Trazado 20" d="M92.115,228.135V199.162a23.658,23.658,0,0,1,11.8-20.433m-11.8,68.926v-9.323m0,13.693v12.657a23.66,23.66,0,0,0,11.8,20.433l11.624,6.711m45.119,26.049L139.29,305.542m61.312,2.894,40.389-23.319a23.659,23.659,0,0,0,11.8-20.433v-6.411m0-11.672v7.946m0-14.89V199.162a23.659,23.659,0,0,0-11.8-20.433l-6.537-3.774m-37.837-21.845-12.369-7.141a23.592,23.592,0,0,0-23.594,0l-32.916,19" transform="translate(-92.115 -142.808)" fill="none" stroke="#707070" stroke-linecap="round" stroke-miterlimit="10" stroke-width="0.5"/>
      <path id="Trazado_21" data-name="Trazado 21" d="M222.615,183.226l3.858,2.228m-112.75,59.118V212.613a15.477,15.477,0,0,1,7.718-13.367l56.743-32.761a15.437,15.437,0,0,1,15.436,0l16.615,9.593M210.19,314.7l-16.57,9.567a15.434,15.434,0,0,1-15.435,0L121.441,291.5a15.479,15.479,0,0,1-7.718-13.368v-5.118M220.232,308.9l-6.264,3.617m16.247-9.38-5.392,3.113m8.945-116.583,16.6,9.581a15.478,15.478,0,0,1,7.717,13.367v65.521a15.479,15.479,0,0,1-7.717,13.368l-16.016,9.247" transform="translate(-105.565 -156.259)" fill="none" stroke="#707070" stroke-linecap="round" stroke-miterlimit="10" stroke-width="2"/>
      <path id="Trazado_22" data-name="Trazado 22" d="M133.962,213.9l56.743-32.76a9.607,9.607,0,0,1,9.609,0l56.743,32.76a9.608,9.608,0,0,1,4.8,8.321v65.521a9.608,9.608,0,0,1-4.8,8.321l-56.743,32.761a9.609,9.609,0,0,1-9.609,0l-56.743-32.761a9.609,9.609,0,0,1-4.8-8.321V222.22A9.609,9.609,0,0,1,133.962,213.9Z" transform="translate(-115.172 -165.865)" fill="url(#linear-gradient)"/>
      <path id="Trazado_23" data-name="Trazado 23" d="M133.962,213.9l56.743-32.76a9.607,9.607,0,0,1,9.609,0l56.743,32.76a9.608,9.608,0,0,1,4.8,8.321v.615a9.608,9.608,0,0,1-4.8,8.321l-56.743,32.761a9.609,9.609,0,0,1-9.609,0l-56.743-32.761a9.609,9.609,0,0,1-4.8-8.321v-.615A9.609,9.609,0,0,1,133.962,213.9Z" transform="translate(-115.172 -165.865)" opacity="0.5" fill="url(#linear-gradient-2)" style="mix-blend-mode: overlay;isolation: isolate"/>
      <path id="Trazado_24" data-name="Trazado 24" d="M133.962,385.813,190.7,353.053a9.609,9.609,0,0,1,9.609,0l56.743,32.761a9.608,9.608,0,0,1,4.8,8.321v.615a9.608,9.608,0,0,1-4.8,8.321l-56.743,32.761a9.609,9.609,0,0,1-9.609,0L133.962,403.07a9.609,9.609,0,0,1-4.8-8.321v-.615A9.609,9.609,0,0,1,133.962,385.813Z" transform="translate(-115.172 -272.874)" opacity="0.5" fill="url(#linear-gradient-3)" style="mix-blend-mode: overlay;isolation: isolate"/>
    </g>
    <g id="Grupo_99" data-name="Grupo 99" transform="translate(658.339 268.954)">
      <circle id="Elipse_12" data-name="Elipse 12" cx="6.327" cy="6.327" r="6.327" transform="translate(9.087 9.229)" fill="#d3df7b"/>
      <g id="Trazado_430" data-name="Trazado 430" transform="translate(4.071 4.071)" fill="none">
        <path d="M11.469,0A11.469,11.469,0,1,1,0,11.469,11.469,11.469,0,0,1,11.469,0Z" stroke="none"/>
        <path d="M 11.46933555603027 1.999996185302734 C 6.2479248046875 1.999996185302734 1.999996185302734 6.2479248046875 1.999996185302734 11.46933555603027 C 1.999996185302734 16.69074630737305 6.2479248046875 20.93866539001465 11.46933555603027 20.93866539001465 C 16.69074630737305 20.93866539001465 20.93866539001465 16.69074630737305 20.93866539001465 11.46933555603027 C 20.93866539001465 6.2479248046875 16.69074630737305 1.999996185302734 11.46933555603027 1.999996185302734 M 11.46933555603027 -3.814697265625e-06 C 17.80367660522461 -3.814697265625e-06 22.93866539001465 5.13499641418457 22.93866539001465 11.46933555603027 C 22.93866539001465 17.80367660522461 17.80367660522461 22.93866539001465 11.46933555603027 22.93866539001465 C 5.13499641418457 22.93866539001465 -3.814697265625e-06 17.80367660522461 -3.814697265625e-06 11.46933555603027 C -3.814697265625e-06 5.13499641418457 5.13499641418457 -3.814697265625e-06 11.46933555603027 -3.814697265625e-06 Z" stroke="none" fill="#d3df7b"/>
      </g>
      <g id="Trazado_431" data-name="Trazado 431" transform="translate(0 0)" fill="none">
        <path d="M15.54,0A15.54,15.54,0,1,1,0,15.54,15.54,15.54,0,0,1,15.54,0Z" stroke="none"/>
        <path d="M 15.54031562805176 0.9999961853027344 C 11.65645599365234 0.9999961853027344 8.00506591796875 2.512454986572266 5.258754730224609 5.258754730224609 C 2.512454986572266 8.00506591796875 0.9999961853027344 11.65645599365234 0.9999961853027344 15.54031562805176 C 0.9999961853027344 19.42417526245117 2.512454986572266 23.07556533813477 5.258754730224609 25.82187652587891 C 8.00506591796875 28.56817626953125 11.65645599365234 30.08063507080078 15.54031562805176 30.08063507080078 C 19.42417526245117 30.08063507080078 23.07556533813477 28.56817626953125 25.82187652587891 25.82187652587891 C 28.56817626953125 23.07556533813477 30.08063507080078 19.42417526245117 30.08063507080078 15.54031562805176 C 30.08063507080078 11.65645599365234 28.56817626953125 8.00506591796875 25.82187652587891 5.258754730224609 C 23.07556533813477 2.512454986572266 19.42417526245117 0.9999961853027344 15.54031562805176 0.9999961853027344 M 15.54031562805176 -3.814697265625e-06 C 24.12299537658691 -3.814697265625e-06 31.08063507080078 6.957635879516602 31.08063507080078 15.54031562805176 C 31.08063507080078 24.12299537658691 24.12299537658691 31.08063507080078 15.54031562805176 31.08063507080078 C 6.957635879516602 31.08063507080078 -3.814697265625e-06 24.12299537658691 -3.814697265625e-06 15.54031562805176 C -3.814697265625e-06 6.957635879516602 6.957635879516602 -3.814697265625e-06 15.54031562805176 -3.814697265625e-06 Z" stroke="none" fill="#d3df7b"/>
      </g>
      <line id="Línea_3" data-name="Línea 3" y2="47.949" transform="translate(15.54 15.54)" fill="none" stroke="#d0e079" stroke-width="3"/>
      <path id="Trazado_432" data-name="Trazado 432" d="M6110.5,398.5h46.594" transform="translate(-6094.96 -335.011)" fill="none" stroke="#d3df7b" stroke-width="3"/>
    </g>
    <g id="Grupo_100" data-name="Grupo 100" transform="translate(808.553 408.597) rotate(-90)">
      <circle id="Elipse_12-2" data-name="Elipse 12" cx="6.607" cy="6.607" r="6.607" transform="translate(8.933 47.76)" fill="#d3df7b"/>
      <g id="Trazado_430-2" data-name="Trazado 430" transform="translate(4.071 42.776)" fill="none">
        <path d="M11.469,22.939A11.469,11.469,0,1,0,0,11.469,11.469,11.469,0,0,0,11.469,22.939Z" stroke="none"/>
        <path d="M 11.46933555603027 20.93867492675781 C 16.69074630737305 20.93867492675781 20.93867492675781 16.69074630737305 20.93867492675781 11.46933555603027 C 20.93867492675781 6.247925758361816 16.69074630737305 2.000005483627319 11.46933555603027 2.000005483627319 C 6.247925758361816 2.000005483627319 2.000005483627319 6.247925758361816 2.000005483627319 11.46933555603027 C 2.000005483627319 16.69074630737305 6.247925758361816 20.93867492675781 11.46933555603027 20.93867492675781 M 11.46933555603027 22.93867492675781 C 5.134995460510254 22.93867492675781 5.556030373554677e-06 17.80367469787598 5.556030373554677e-06 11.46933555603027 C 5.556030373554677e-06 5.134995460510254 5.134995460510254 5.556030373554677e-06 11.46933555603027 5.556030373554677e-06 C 17.80367469787598 5.556030373554677e-06 22.93867492675781 5.134995460510254 22.93867492675781 11.46933555603027 C 22.93867492675781 17.80367469787598 17.80367469787598 22.93867492675781 11.46933555603027 22.93867492675781 Z" stroke="none" fill="#d3df7b"/>
      </g>
      <g id="Trazado_431-2" data-name="Trazado 431" transform="translate(0 38.705)" fill="none">
        <path d="M15.54,31.081A15.54,15.54,0,1,0,0,15.54,15.54,15.54,0,0,0,15.54,31.081Z" stroke="none"/>
        <path d="M 15.54031562805176 30.08063507080078 C 19.42417526245117 30.08063507080078 23.07556533813477 28.56817626953125 25.82187652587891 25.82187652587891 C 28.56817626953125 23.07556533813477 30.08063507080078 19.42417526245117 30.08063507080078 15.54031562805176 C 30.08063507080078 11.65645599365234 28.56817626953125 8.00506591796875 25.82187652587891 5.258755683898926 C 23.07556533813477 2.512455701828003 19.42417526245117 0.9999956488609314 15.54031562805176 0.9999956488609314 C 11.65645599365234 0.9999956488609314 8.00506591796875 2.512455701828003 5.258755683898926 5.258755683898926 C 2.512455701828003 8.00506591796875 0.9999956488609314 11.65645599365234 0.9999956488609314 15.54031562805176 C 0.9999956488609314 19.42417526245117 2.512455701828003 23.07556533813477 5.258755683898926 25.82187652587891 C 8.00506591796875 28.56817626953125 11.65645599365234 30.08063507080078 15.54031562805176 30.08063507080078 M 15.54031562805176 31.08063507080078 C 6.957635402679443 31.08063507080078 -4.37194830738008e-06 24.12299537658691 -4.37194830738008e-06 15.54031562805176 C -4.37194830738008e-06 6.957635402679443 6.957635402679443 -4.37194830738008e-06 15.54031562805176 -4.37194830738008e-06 C 24.12299537658691 -4.37194830738008e-06 31.08063507080078 6.957635402679443 31.08063507080078 15.54031562805176 C 31.08063507080078 24.12299537658691 24.12299537658691 31.08063507080078 15.54031562805176 31.08063507080078 Z" stroke="none" fill="#d3df7b"/>
      </g>
      <line id="Línea_3-2" data-name="Línea 3" y1="47.949" transform="translate(15.54 0)" fill="none" stroke="#d0e079" stroke-width="3"/>
      <path id="Trazado_432-2" data-name="Trazado 432" d="M0,0H46.593" transform="translate(15.54 0)" fill="none" stroke="#d3df7b" stroke-width="3"/>
    </g>
  </g>
</svg>
